PathFileType	3	(X/Y/Z)	results
DataRate	CameraRate	NumFrames	NumMarkers	Units	OrigDataRate	OrigDataStartFrame	OrigNumFrames
30.0	30.0	4	85	mm	30.0	60	239
Frame#	Time	head			nose			neck			shoulder_r			elbow_r			wrist_r			shoulder_l			elbow_l			wrist_l			hip_r			knee_r			ankle_r			hip_l			knee_l			ankle_l			heel_r			heel_l			mtoe_r			ltoe_r			mtoe_l			ltoe_l			asis_l			asis_r			psi_r			psi_l			mhnd_r			lhnd_r			mhnd_l			lhnd_l			l_lat_knee			r_med_wrist			l_lat_ankle			r_med_ankle			r_lat_knee			xiphoid			l_med_ankle			r_med_knee			l_med_elbow			navel			r_lat_elbow			r_lat_wrist			l_med_wrist			l_lat_elbow			l_med_knee			r_med_elbow			r_lat_ankle			l_lat_wrist			chin			T10			r_eye			l_eye			l_ear			r_ear			spinal_cord_8			spinal_cord_12			spinal_cord_27			spinal_cord_33			up_arm_r_0			up_arm_r_5			up_arm_l_0			up_arm_l_5			front_torso_11			front_torso_7			front_torso_4			front_torso_1			front_torso_10			thigh_r_2			thigh_r_3			thigh_l_1			thigh_l_5			shank_l_0			shank_l_4			shank_r_1			shank_r_2			foot_r_1			foot_r_3			foot_r_5			foot_r_6			foot_r_7			foot_l_1			foot_l_7			foot_l_0			foot_l_4			foot_l_5			foot_l_6			
		X1	Y1	Z1	X2	Y2	Z2	X3	Y3	Z3	X4	Y4	Z4	X5	Y5	Z5	X6	Y6	Z6	X7	Y7	Z7	X8	Y8	Z8	X9	Y9	Z9	X10	Y10	Z10	X11	Y11	Z11	X12	Y12	Z12	X13	Y13	Z13	X14	Y14	Z14	X15	Y15	Z15	X16	Y16	Z16	X17	Y17	Z17	X18	Y18	Z18	X19	Y19	Z19	X20	Y20	Z20	X21	Y21	Z21	X22	Y22	Z22	X23	Y23	Z23	X24	Y24	Z24	X25	Y25	Z25	X26	Y26	Z26	X27	Y27	Z27	X28	Y28	Z28	X29	Y29	Z29	X30	Y30	Z30	X31	Y31	Z31	X32	Y32	Z32	X33	Y33	Z33	X34	Y34	Z34	X35	Y35	Z35	X36	Y36	Z36	X37	Y37	Z37	X38	Y38	Z38	X39	Y39	Z39	X40	Y40	Z40	X41	Y41	Z41	X42	Y42	Z42	X43	Y43	Z43	X44	Y44	Z44	X45	Y45	Z45	X46	Y46	Z46	X47	Y47	Z47	X48	Y48	Z48	X49	Y49	Z49	X50	Y50	Z50	X51	Y51	Z51	X52	Y52	Z52	X53	Y53	Z53	X54	Y54	Z54	X55	Y55	Z55	X56	Y56	Z56	X57	Y57	Z57	X58	Y58	Z58	X59	Y59	Z59	X60	Y60	Z60	X61	Y61	Z61	X62	Y62	Z62	X63	Y63	Z63	X64	Y64	Z64	X65	Y65	Z65	X66	Y66	Z66	X67	Y67	Z67	X68	Y68	Z68	X69	Y69	Z69	X70	Y70	Z70	X71	Y71	Z71	X72	Y72	Z72	X73	Y73	Z73	X74	Y74	Z74	X75	Y75	Z75	X76	Y76	Z76	X77	Y77	Z77	X78	Y78	Z78	X79	Y79	Z79	X80	Y80	Z80	X81	Y81	Z81	X82	Y82	Z82	X83	Y83	Z83	X84	Y84	Z84	X85	Y85	Z85	
60	2.0	96.43943197811264	1304.6545549549196	-588.8909683410277	92.33236812295782	1135.126430398064	-706.9904151117671	85.57055050207103	1034.2236622700632	-530.6437557131909	234.21348034567913	982.2489985658428	-580.9071337775983	364.36493751494356	807.8623059945203	-727.2323921796253	189.36939179800362	892.2501700782785	-838.5625083605198	-100.40120746514334	970.966952166279	-515.0244991164531	-182.3171191692938	836.0333899886367	-739.8046111836104	18.384505788010376	884.476369666514	-852.7257420301572	203.53827328843153	635.9851495564822	-215.89252562796634	292.7664849562585	458.22153436234737	-557.792170587809	311.2619999784858	109.51975407201043	-384.88488345097926	-7.105349111317938	630.0415845129439	-196.60344613750846	-144.5589202713381	453.13717427496624	-538.8321569147801	-120.97720726442554	106.94857314981937	-364.05173419201697	308.380056836204	55.02124518227363	-353.3294120677343	-121.49043090850628	44.217180595691616	-324.0425608218694	328.24144271245905	44.75368551633016	-579.3086474551939	386.51786178375215	30.66164817106208	-512.2420041690747	-106.3594380156939	61.835215904785194	-550.8589485896601	-183.48962357090286	29.265952076411327	-498.7409370439718	-61.69882539280644	639.8006820971294	-274.0047962218529	247.15989064113103	649.0574756287597	-297.3583488146169	147.78398192773074	772.0747346973171	-201.5571688206325	42.48565506186769	764.0875372986682	-195.99509884760096	139.9289602054494	895.0643998694388	-892.6865474659611	124.25392557062104	940.7582777619845	-869.5477258217094	69.49956690903578	881.3880208478951	-909.2264449365686	97.52457461930376	914.4467104934482	-877.961939415677	-186.73238194705598	465.0276963792263	-514.1185515429554	202.7044755003933	874.3102702042888	-855.7084543734017	-171.3560648446209	96.59155361328453	-344.3744970448181	283.511551962377	89.02680562045585	-401.85344923214336	333.9840922651899	457.85999469059215	-547.3166173570125	89.76055143064877	845.4704996057849	-501.45195012792834	-92.85623499971679	89.8373065475614	-376.28440482406455	251.41512785395577	454.56707041938296	-562.4780537553669	-178.49073048043053	808.926412104107	-713.7841341287534	91.5709187994697	666.9499001124668	-380.0551021246594	381.3183817155864	841.6208190397791	-740.6617846987152	184.47360858197558	901.7212810566215	-809.3826226283174	-3.936438666171105	876.0017673253013	-875.1279169791887	-192.647318758722	876.0533473647538	-746.0492463827969	-95.1804657121842	465.1029826129414	-545.1383705841396	343.31001017837445	784.7228404175506	-707.5567230562788	357.71419968804753	100.78152038544074	-366.2570475007902	21.046316775389958	900.102131514869	-825.4891088590238	94.17657318404164	1061.6298269730023	-687.8990295568874	91.54112043374353	972.7940829763022	-356.9604647386795	124.02155701534039	1166.1208335908802	-707.7122580788831	56.984777840635616	1165.0420155725183	-705.414929019042	9.564056358569703	1159.7194432770045	-604.7379234087614	175.959376843259	1159.3795779688357	-607.9303917080687	84.65571776953323	1109.6763019035895	-528.7095948034735	86.92992261954656	1050.2199896857132	-417.65658403417206	106.92546065468505	845.944991631549	-277.6056013567344	91.50180647145335	957.4401512138344	-361.1897966688711	274.94576419219976	909.9490332403287	-690.6119356277995	342.71032263029474	879.4340201246782	-642.4192852091537	-129.70443656283092	969.410614044406	-571.1018961958564	-170.2080349916706	839.1601621210258	-652.5627025899817	140.6861234700003	712.9433589611403	-367.40578918875065	92.4242343792825	759.6178389473713	-472.4394327431709	22.708821504615283	876.3222115165656	-531.9852996734453	19.722067952991416	735.1814082128176	-388.5301008447924	169.3135420442885	904.8839640438433	-566.2229870994342	233.58697246513526	538.6689372470378	-400.4075616553861	334.3492434709768	529.0986646933683	-410.3856350753562	-55.81904830533998	497.38620381582103	-442.2941947138367	-136.98231804112345	618.0780817639173	-266.8162932261953	-194.7204568728442	187.90640639695476	-402.54305022589654	-88.6492865269905	316.03097222678065	-484.19341402025503	355.3424962209543	320.5234212127124	-465.7513318689487	266.3108025865454	266.494524554841	-483.3279170631385	348.1997818734981	34.09594502842066	-558.7433894429912	370.62851864298403	32.278964630128385	-539.3884377522842	309.115875922098	58.42723422452963	-497.8088764134059	345.2823916303174	59.448775184418295	-480.46805438875055	372.6122309470327	41.29050179524738	-465.15424531943836	-153.1269262680678	38.021025632689955	-527.64153738664	-179.43507354008227	56.51487338821549	-420.6956133950049	-167.995039758019	34.53958576643375	-520.2918545164066	-134.87082396935494	42.219751605141425	-536.0241526561125	-146.09925008324188	52.10852286557651	-476.5577629626943	-118.95826161286851	67.64535615803209	-444.74492155413395	
61	2.033333333333333	98.19181045949809	1338.6451118063505	-584.2216089361921	91.9753796767727	1167.9270350850202	-700.5006981385219	85.08935894493781	1064.5013978634997	-524.3082684949403	244.19447457251496	1021.5773481457735	-554.7427462131499	362.8946648079981	844.5975536799303	-707.548566732382	192.0823905876506	917.9863850454902	-832.3539904955747	-97.64912865677469	998.5027863586288	-509.85793720035343	-189.04065240188794	865.8810754323833	-732.3494038945515	13.842395672169106	913.4899221806763	-841.6696346284554	203.29833920700148	656.2181549645921	-218.4681339017047	292.5312368430094	460.27565847221683	-549.0336357409632	311.66586224072506	108.14409253605145	-383.2953722625524	-7.651099396762229	652.6227460225754	-202.17280948023813	-141.60130625204974	455.5065040902692	-533.1242277332959	-121.58659822383851	107.01436106719659	-362.52681093513297	308.8174608507821	53.14128880385562	-352.74350070622046	-122.8082522457603	43.85140320987696	-323.2624715557236	328.40592595568876	45.980629005008325	-578.8663196405313	386.78634911623067	31.055775362527328	-512.0708399032949	-105.28558456607638	63.68373676846324	-549.7236173117053	-183.07857435306002	30.918949968778204	-498.7252929906735	-61.03471413919766	664.152824899567	-280.1721914723792	248.21019831630932	669.8968549026587	-299.1293366960711	149.0190794209439	792.77444365941	-202.958117180009	43.56347237448094	786.0196102351033	-198.96352667635452	145.57293576995534	916.5209153121231	-889.0673997167119	127.5314457451164	962.9281066945454	-869.3210207973934	65.77275947550673	910.5095094862191	-897.4277843123706	93.66350519444143	942.908556817043	-865.3629225630319	-184.31059833167564	467.0810142831685	-509.869061622213	206.7679514481621	899.5371234123231	-847.7684959017932	-172.21440836527793	96.67858206756091	-343.4877111857768	283.76444336793116	88.0373371978494	-400.4770410015635	333.7977672912286	458.64029340395564	-538.6547965748294	90.02792187522343	874.9585228399696	-500.9291504432505	-93.43344883841324	89.90919003840958	-374.69381797861337	251.38408531275087	456.548172054389	-554.8398031818701	-185.24334156711203	838.6709920059076	-706.4324882420033	93.07330296016139	692.8159548494352	-385.06333512892405	380.0549492532976	877.9753239758534	-721.6501320551399	185.38605515216813	928.8611638829396	-804.0337743103322	-8.223573606195329	905.5098354493483	-864.5018947921386	-198.47094914718338	906.1629370850629	-738.3282504224882	-92.76085598381756	466.9832808652562	-540.8952333464465	342.2003671266587	821.9117699880645	-686.9821365718177	358.23262445652125	98.96450028488395	-365.17269031850594	16.253757263193837	928.7729059477064	-814.2160446987765	93.5437078738425	1094.6228650074106	-680.6595337162322	92.22598869900766	997.809132774548	-352.62152825472094	123.84557135975334	1198.714958017665	-701.832412367906	56.827097269058534	1198.076218763679	-698.9190854098814	10.291659759712454	1194.0951237670033	-597.7681190338043	176.64590790513543	1192.6892330984417	-602.4582828765017	83.95171526637067	1139.856210466967	-520.0613037697566	87.03402765301665	1077.039441015693	-410.8937761013486	108.44879031682048	868.6436352732204	-277.2712846964282	92.21046650956511	982.5916687154928	-357.3183954449751	277.9073305172652	948.7490474800544	-666.4612739899161	347.0513412512631	916.3243023004943	-621.5895162820939	-128.4609991311027	997.7464477571206	-565.1375218306248	-174.54235250912674	868.648311624779	-645.4604003168674	142.11611809671106	738.5613345614219	-371.2840309762584	93.12047945753504	788.2679706847599	-474.57227337851896	22.710450317014878	906.5102488256234	-530.1335107119547	20.966978473884705	761.0395732564906	-391.04978060535285	169.03130965175183	936.584544459932	-564.2902069495767	233.43859437243015	549.078066827122	-397.44225089387453	334.06224494830417	536.6337816497868	-405.4552425567956	-53.99694074340773	505.63082433715056	-440.0380158517425	-137.27700522930365	634.5408316559899	-271.5353733216328	-194.51528915358875	188.84520555171787	-400.7228574206474	-86.96049032741382	317.4236445899078	-479.67429641535574	355.52397879729904	320.6638150591426	-460.2164573196477	266.2841447257363	267.13111152124344	-478.2498197174413	348.4046995112064	35.07096113733972	-558.4731645443857	370.86040703896305	33.0210884039004	-539.1728270603721	309.3653615368209	58.51639521441462	-497.1639488588583	345.5524404454562	59.35098302357556	-479.8560519286883	372.9261543021406	41.02310133072554	-464.8252735020745	-152.3859913808604	39.83548831221474	-527.2252946592828	-179.71004415206147	57.364794724568824	-420.3716974667991	-167.3427430042526	36.34329421624022	-520.06294714903	-134.02793152618693	44.04097356557784	-535.3787198195927	-145.82307890591957	53.37905969155469	-475.9330177125445	-118.9449924431587	68.48045352898593	-443.6901937875243	
62	2.0666666666666664	100.17128487191408	1374.7637641285069	-579.8146936643941	91.41228429346192	1202.0540542233987	-692.9463352603233	85.87984434819532	1096.5092512204299	-517.2166290058351	253.0993439779517	1057.4254982164443	-539.772499581539	366.111561069514	877.3391434271803	-693.259779844213	197.51218692226686	942.8206239699015	-825.2657423509486	-94.65683741890425	1028.5765671936974	-504.1098194989908	-194.64986023290714	894.8924100170818	-722.2229164961448	10.2650053559524	942.5325197126733	-827.6713121270325	202.88293785258824	677.2155133221689	-221.58421002463163	291.1988113421892	462.6014952841331	-539.4572777766568	313.12050444027454	107.184384182543	-381.2483586016639	-8.355554116341036	676.1482339690116	-209.12264366324976	-137.5553084303112	458.1604796573254	-527.0159883954498	-121.46079714402993	107.11033042501211	-361.3186729829769	310.6455921836994	51.81842117741785	-351.55407176594724	-123.4263777947668	43.51287986947799	-322.87598720551284	326.7245183963096	46.338823646614664	-578.0004327423823	386.19714384236715	31.1652986480035	-512.2324151376953	-103.82663737869139	65.4518223535504	-548.9723136958091	-182.25111525375456	32.658634262457156	-498.96913697246873	-60.167034544846096	689.4730325897485	-287.8924149626372	249.41846257051617	691.4413316592776	-301.22391487560776	150.08624076437516	814.2374437566708	-205.09427369030814	44.49772381426374	808.8058640912116	-203.0861362363918	152.52631593605216	938.3032854095214	-883.0372996988804	133.26833812475556	985.1701292319191	-865.6686067286814	63.246778936371875	939.5570268360424	-882.4316528049762	90.51595040559687	971.965597845113	-849.8460097049932	-180.8744220765583	469.28715767338946	-505.36077705352136	212.87531415563362	924.0054631823454	-839.5350091739137	-172.33747980146873	96.83536786917851	-342.9208711370128	284.6024778595098	87.57037668755441	-397.9813617967826	332.5352781688441	460.15197044514423	-529.2533506077092	91.44595879157403	906.2728011222845	-500.5857703107526	-93.3019336722714	89.99710521527138	-373.4611063279776	250.2283434724237	458.53119226266114	-546.0249923527286	-190.5979941923675	867.9392266020267	-696.0771135446785	95.20437926392344	720.14319310098	-391.2618485370568	383.3083706928012	910.3515354254641	-708.1546370122112	189.9136613095248	954.7209271017982	-797.592983874637	-11.361159322822195	934.5451792082891	-850.9180813986733	-203.53528516246655	935.2606247073788	-728.4488258477038	-89.27997453467256	469.08609220466946	-536.2542223100127	345.6571954425099	855.1324632965385	-671.9440797112222	360.1475814447702	97.39853294589417	-364.69991450583785	12.150700975681355	957.8190657657486	-800.1785945572854	93.32039935605225	1129.1047042520595	-671.8659119865799	93.42973048731066	1023.7884308924134	-348.0131775299241	123.27664317519096	1232.7734471769788	-695.4683005307076	56.331550232994324	1232.2710044019993	-691.1702296305721	11.878994700545556	1230.1119177497176	-589.0319766993828	178.10052693349553	1228.4124368976538	-597.1081161506359	84.5086515585209	1171.6618080487503	-510.2962419126432	87.91835697955139	1105.02006332937	-403.4306813195562	110.15007493663181	892.0825290142501	-277.312755088852	93.45685282576387	1008.7472930362658	-353.2472439319678	283.31341662589557	982.9347359406588	-651.3959004973557	353.1346718779791	950.225693337833	-607.7972330043915	-127.03434426844085	1027.694231919644	-558.4853141797255	-177.64393823067377	898.4669016606126	-635.8193351757386	144.11832038831665	765.5276455310627	-375.9196014479161	94.84397733715343	818.7117286700151	-477.3260889940888	23.994596857365046	938.6252635963045	-528.5800553249431	22.87543623386934	788.3048117233265	-394.74601498700713	170.17919289302395	970.361845321402	-561.8033949301406	232.61318801635804	559.8847152203008	-394.12047885715043	333.07132152807804	545.3580034485019	-400.54896084133594	-51.449379242816455	514.4005280920206	-437.84741349056856	-137.4820220005873	651.5037262835009	-277.3868354873421	-193.48243987845623	189.9665050397703	-399.0222052172897	-84.33325659960056	318.959648424624	-475.0551204884073	355.955446800205	320.9330974209269	-455.28669649156495	265.90132312695664	268.2490704923426	-471.69854003817164	347.0802508316281	35.361825264326825	-558.000376866957	369.842355207164	33.26156215304957	-539.0678835009769	308.91631842213116	58.22075179121167	-495.92331220055144	345.3660855796326	59.071931663535175	-479.1765369920146	373.0397733872526	40.74345962623274	-464.7062269169365	-151.26062940993847	41.66853404680122	-527.1152005282554	-179.4042476193837	58.31669523394329	-420.3334269932412	-166.29926869265736	38.19652346578199	-520.1163769388952	-132.8080599193494	45.8430185881059	-535.0687637359121	-145.06179714096734	54.670441083501295	-475.63780051473407	-118.37476383386361	69.29406507989536	-443.0182481439499	
63	2.1	102.86985310247104	1412.208183460487	-574.9788179560195	91.44557607050714	1237.21900753451	-684.3058801129906	87.46504941860353	1129.3984819898944	-509.14769468277785	256.5676051200719	1090.2886943176638	-536.0877657431687	369.3554963439271	906.481766590031	-685.2692207175468	198.851396994859	968.1060891166758	-816.6843734684193	-91.8859734598228	1060.4140670586007	-496.95022111838546	-194.81291062673307	923.7519712857722	-711.8290212770117	9.967871521488036	972.5176194361683	-817.0230760304586	202.1308123965936	698.6592132874111	-224.292217119062	287.91272824828604	465.595559476678	-528.5731937901616	314.52320010095696	106.58140352217133	-379.46697590956	-9.304442753442624	700.1799430653997	-215.86900684710426	-131.7597899928313	461.4417771311572	-519.3955492812973	-121.45039534151698	107.13772940014132	-360.29432663415474	312.6588528960082	50.96519458524297	-350.58901280744476	-124.48248634041448	43.120431135741114	-322.84288111194724	323.9367132823537	45.603836844282455	-577.3280212841504	385.12250480949103	31.72856878896959	-512.8575859701876	-101.81345546497855	66.59841263016533	-548.4972967528108	-181.16224001072254	34.14904041953898	-499.7436483577519	-59.43855137779784	713.8296924092226	-295.66193966904353	250.34610576491366	712.0236508242897	-303.0772972523815	150.6907199101271	836.3675450475725	-209.30052300034703	45.0251244594595	832.214056848304	-209.2928253118605	153.12376449168792	961.9840611843847	-873.7211350710384	133.96221623244176	1009.2358340853085	-857.3154262849313	63.145859348119785	969.620065661369	-871.5970862696093	90.00440746781995	1002.5396646215396	-839.1831121085976	-175.81359375227328	472.02729162807304	-499.6512590031837	214.0793026496799	948.966899208661	-830.664724985745	-172.725122828142	96.94299970376763	-342.9893962932636	284.81540528415354	87.67180386195255	-394.8895079265631	329.3911187420899	462.72593509518236	-518.7865527747017	93.9134598262772	938.6479314707545	-500.7739549724658	-93.22292342657654	90.02294910193159	-372.2741797748858	247.0643066863309	460.98469566516343	-535.4482000475256	-190.29900168083813	897.140612711766	-685.4101842952895	97.98032706417042	747.9563631300724	-399.6291927094952	386.2418730864011	939.145549232427	-701.2483521308798	191.58309497645746	980.6987113574895	-789.2301566943738	-11.508942767121887	964.143885178798	-840.2723321737174	-203.89386903089292	964.0173306998978	-718.4276958733059	-84.0120214170924	471.64526145000826	-529.9219309047683	349.2021870100711	884.7859839449945	-663.155561452273	362.3141237152776	95.88767033471585	-365.94545422703663	11.622663473706329	988.0351652390993	-789.6451416046887	93.50272016041612	1164.7167886737823	-661.7486367486596	94.38101356551842	1049.4187521465058	-343.2244029623224	123.3591270863901	1267.761566965196	-688.0550272406439	56.50385343109278	1267.595601325613	-682.5128100736748	13.944230239201133	1267.7229183180725	-579.5488536397813	179.98109156117022	1265.2425621227076	-590.6537425165582	85.66484057319629	1204.1709290898698	-498.973259670734	88.7810949487918	1132.9578317680093	-395.088804627307	111.35887653943482	914.8434429623329	-278.21822965383103	94.51695849383712	1034.6200324037534	-349.10755073216694	286.2985436121095	1012.7833441221445	-645.771581640814	356.6574623477292	981.7251886731614	-601.8313211204966	-125.07663776858871	1058.769108425141	-550.815328571534	-176.51637814786994	928.4569644003316	-625.7438473055921	146.56707643802346	792.8688468103994	-382.0251221748138	97.62450152984512	850.1750194342067	-481.3247205600769	26.464179010112527	971.8577481529883	-527.7508087861123	25.32268865920774	815.8501199695728	-400.5920180033366	172.67857191821824	1005.7258039840295	-558.6578166154769	230.56745479337	571.1841520863878	-389.70271908813925	330.8669240562945	555.2678526376261	-395.2592649228715	-47.73830960668991	523.7116155620101	-434.309355042954	-137.45682069178227	668.8799609661255	-283.2357308438448	-192.11849750495057	191.31503592059806	-397.6308963812551	-80.59870132540401	320.8173045582881	-469.22891963005407	355.6817529927447	321.37790463813354	-451.3937220318262	264.1404670430931	270.1211892905733	-463.54454879505977	344.94433052056127	35.070042327161445	-557.7685795097236	368.1500406544196	33.459913240910076	-539.333116203877	307.6688930051514	57.19255570330701	-494.890011010812	344.4475411282556	58.81474849772651	-478.9380817961056	372.80241706175343	41.077408409430106	-465.0620760612858	-149.7359525736473	43.08719863061968	-527.4255411102732	-179.08077065409327	59.180472844392824	-420.88231113754813	-164.8932832943879	39.70063059258729	-520.644277000146	-131.14658202720682	47.15202378742818	-535.1128884304162	-144.07327492321608	55.639248903343365	-475.7750044623327	-117.67059778203313	69.76780025378446	-442.7089191344759	
